# Blender 4.4.0
# www.blender.org
o column
v 0.000000 0.005000 -0.200000
v 0.000000 1.995000 -0.200000
v 0.039018 0.005000 -0.196157
v 0.039018 1.995000 -0.196157
v 0.076537 0.005000 -0.184776
v 0.076537 1.995000 -0.184776
v 0.111114 0.005000 -0.166294
v 0.111114 1.995000 -0.166294
v 0.141421 0.005000 -0.141421
v 0.141421 1.995000 -0.141421
v 0.166294 0.005000 -0.111114
v 0.166294 1.995000 -0.111114
v 0.184776 0.005000 -0.076537
v 0.184776 1.995000 -0.076537
v 0.196157 0.005000 -0.039018
v 0.196157 1.995000 -0.039018
v 0.200000 0.005000 0.000000
v 0.200000 1.995000 0.000000
v 0.196157 0.005000 0.039018
v 0.196157 1.995000 0.039018
v 0.184776 0.005000 0.076537
v 0.184776 1.995000 0.076537
v 0.166294 0.005000 0.111114
v 0.166294 1.995000 0.111114
v 0.141421 0.005000 0.141421
v 0.141421 1.995000 0.141421
v 0.111114 0.005000 0.166294
v 0.111114 1.995000 0.166294
v 0.076537 0.005000 0.184776
v 0.076537 1.995000 0.184776
v 0.039018 0.005000 0.196157
v 0.039018 1.995000 0.196157
v 0.000000 0.005000 0.200000
v 0.000000 1.995000 0.200000
v -0.039018 0.005000 0.196157
v -0.039018 1.995000 0.196157
v -0.076537 0.005000 0.184776
v -0.076537 1.995000 0.184776
v -0.111114 0.005000 0.166294
v -0.111114 1.995000 0.166294
v -0.141421 0.005000 0.141421
v -0.141421 1.995000 0.141421
v -0.166294 0.005000 0.111114
v -0.166294 1.995000 0.111114
v -0.184776 0.005000 0.076537
v -0.184776 1.995000 0.076537
v -0.196157 0.005000 0.039018
v -0.196157 1.995000 0.039018
v -0.200000 0.005000 0.000000
v -0.200000 1.995000 0.000000
v -0.196157 0.005000 -0.039018
v -0.196157 1.995000 -0.039018
v -0.184776 0.005000 -0.076537
v -0.184776 1.995000 -0.076537
v -0.166294 0.005000 -0.111114
v -0.166294 1.995000 -0.111114
v -0.141421 0.005000 -0.141421
v -0.141421 1.995000 -0.141421
v -0.111114 0.005000 -0.166294
v -0.111114 1.995000 -0.166294
v -0.076537 0.005000 -0.184776
v -0.076537 1.995000 -0.184776
v -0.039018 0.005000 -0.196157
v -0.039018 1.995000 -0.196157
v 0.000000 0.005000 -1.989952
v 0.000000 0.015000 -2.000000
v 0.000000 1.985000 -2.000000
v 0.000000 1.995000 -1.989952
v 0.390181 0.015000 -1.961571
v 0.388220 0.005000 -1.951715
v 0.388220 1.995000 -1.951715
v 0.390181 1.985000 -1.961571
v 0.765367 0.015000 -1.847759
v 0.761522 0.005000 -1.838475
v 0.761522 1.995000 -1.838475
v 0.765367 1.985000 -1.847759
v 1.111140 0.015000 -1.662939
v 1.105558 0.005000 -1.654584
v 1.105558 1.995000 -1.654584
v 1.111140 1.985000 -1.662939
v 1.414214 0.015000 -1.414214
v 1.407108 0.005000 -1.407108
v 1.407108 1.995000 -1.407108
v 1.414214 1.985000 -1.414214
v 1.662939 0.015000 -1.111140
v 1.654584 0.005000 -1.105558
v 1.654584 1.995000 -1.105558
v 1.662939 1.985000 -1.111140
v 1.847759 0.015000 -0.765367
v 1.838475 0.005000 -0.761522
v 1.838475 1.995000 -0.761522
v 1.847759 1.985000 -0.765367
v 1.961571 0.015000 -0.390181
v 1.951715 0.005000 -0.388220
v 1.951715 1.995000 -0.388220
v 1.961571 1.985000 -0.390181
v 2.000000 0.015000 0.000000
v 1.989952 0.005000 0.000000
v 1.989952 1.995000 0.000000
v 2.000000 1.985000 0.000000
v 1.961571 0.015000 0.390181
v 1.951715 0.005000 0.388220
v 1.951715 1.995000 0.388220
v 1.961571 1.985000 0.390181
v 1.847759 0.015000 0.765367
v 1.838475 0.005000 0.761522
v 1.838475 1.995000 0.761522
v 1.847759 1.985000 0.765367
v 1.662939 0.015000 1.111140
v 1.654584 0.005000 1.105558
v 1.654584 1.995000 1.105558
v 1.662939 1.985000 1.111140
v 1.414214 0.015000 1.414214
v 1.407108 0.005000 1.407108
v 1.407108 1.995000 1.407108
v 1.414214 1.985000 1.414214
v 1.111140 0.015000 1.662939
v 1.105558 0.005000 1.654584
v 1.105558 1.995000 1.654584
v 1.111140 1.985000 1.662939
v 0.765367 0.015000 1.847759
v 0.761522 0.005000 1.838475
v 0.761522 1.995000 1.838475
v 0.765367 1.985000 1.847759
v 0.390181 0.015000 1.961571
v 0.388220 0.005000 1.951715
v 0.388220 1.995000 1.951715
v 0.390181 1.985000 1.961571
v 0.000000 0.015000 2.000000
v 0.000000 0.005000 1.989952
v 0.000000 1.995000 1.989952
v 0.000000 1.985000 2.000000
v -0.390181 0.015000 1.961571
v -0.388220 0.005000 1.951715
v -0.388220 1.995000 1.951715
v -0.390181 1.985000 1.961571
v -0.765367 0.015000 1.847759
v -0.761522 0.005000 1.838475
v -0.761522 1.995000 1.838475
v -0.765367 1.985000 1.847759
v -1.111140 0.015000 1.662939
v -1.105558 0.005000 1.654584
v -1.105558 1.995000 1.654584
v -1.111140 1.985000 1.662939
v -1.414214 0.015000 1.414214
v -1.407108 0.005000 1.407108
v -1.407108 1.995000 1.407108
v -1.414214 1.985000 1.414214
v -1.662939 0.015000 1.111140
v -1.654584 0.005000 1.105558
v -1.654584 1.995000 1.105558
v -1.662939 1.985000 1.111140
v -1.847759 0.015000 0.765367
v -1.838475 0.005000 0.761522
v -1.838475 1.995000 0.761522
v -1.847759 1.985000 0.765367
v -1.961571 0.015000 0.390181
v -1.951715 0.005000 0.388220
v -1.951715 1.995000 0.388220
v -1.961571 1.985000 0.390181
v -2.000000 0.015000 0.000000
v -1.989952 0.005000 0.000000
v -1.989952 1.995000 0.000000
v -2.000000 1.985000 0.000000
v -1.961571 0.015000 -0.390181
v -1.951715 0.005000 -0.388220
v -1.951715 1.995000 -0.388220
v -1.961571 1.985000 -0.390181
v -1.847759 0.015000 -0.765367
v -1.838475 0.005000 -0.761522
v -1.838475 1.995000 -0.761522
v -1.847759 1.985000 -0.765367
v -1.662939 0.015000 -1.111140
v -1.654584 0.005000 -1.105558
v -1.654584 1.995000 -1.105558
v -1.662939 1.985000 -1.111140
v -1.414214 0.015000 -1.414214
v -1.407108 0.005000 -1.407108
v -1.407108 1.995000 -1.407108
v -1.414214 1.985000 -1.414214
v -1.111140 0.015000 -1.662939
v -1.105558 0.005000 -1.654584
v -1.105558 1.995000 -1.654584
v -1.111140 1.985000 -1.662939
v -0.765367 0.015000 -1.847759
v -0.761522 0.005000 -1.838475
v -0.761522 1.995000 -1.838475
v -0.765367 1.985000 -1.847759
v -0.390181 0.015000 -1.961571
v -0.388220 0.005000 -1.951715
v -0.388220 1.995000 -1.951715
v -0.390181 1.985000 -1.961571
vn -0.0980 -0.0000 -0.9952
vn -0.0000 -1.0000 -0.0000
vn 0.9569 -0.0000 0.2903
vn -0.0000 1.0000 -0.0000
vn 0.0980 -0.0000 -0.9952
vn -0.4714 -0.0000 0.8819
vn -0.7730 -0.0000 -0.6344
vn 0.8819 -0.0000 0.4714
vn -0.6344 -0.0000 0.7730
vn -0.6344 -0.0000 -0.7730
vn 0.4714 -0.0000 -0.8819
vn 0.7730 -0.0000 0.6344
vn -0.7730 -0.0000 0.6344
vn -0.4714 -0.0000 -0.8819
vn 0.6344 -0.0000 -0.7730
vn 0.6344 -0.0000 0.7730
vn -0.8819 -0.0000 0.4714
vn -0.2903 -0.0000 -0.9569
vn 0.7730 -0.0000 -0.6344
vn 0.4714 -0.0000 0.8819
vn -0.9569 -0.0000 0.2903
vn 0.8819 -0.0000 -0.4714
vn 0.2903 -0.0000 0.9569
vn -0.9952 -0.0000 0.0980
vn 0.2903 -0.0000 -0.9569
vn 0.9569 -0.0000 -0.2903
vn 0.0980 -0.0000 0.9952
vn -0.9952 -0.0000 -0.0980
vn 0.9952 -0.0000 -0.0980
vn -0.0980 -0.0000 0.9952
vn -0.9569 -0.0000 -0.2903
vn 0.9952 -0.0000 0.0980
vn -0.2903 -0.0000 0.9569
vn -0.8819 -0.0000 -0.4714
vn 0.0693 -0.7071 -0.7037
vn 0.0693 0.7071 -0.7037
vn 0.2053 -0.7071 -0.6767
vn 0.2053 0.7071 -0.6767
vn 0.3333 -0.7071 -0.6236
vn 0.3333 0.7071 -0.6236
vn 0.4486 -0.7071 -0.5466
vn 0.4486 0.7071 -0.5466
vn 0.5466 -0.7071 -0.4486
vn 0.5466 0.7071 -0.4486
vn 0.6236 -0.7071 -0.3333
vn 0.6236 0.7071 -0.3333
vn 0.6767 -0.7071 -0.2053
vn 0.6767 0.7071 -0.2053
vn 0.7037 -0.7071 -0.0693
vn 0.7037 0.7071 -0.0693
vn 0.7037 -0.7071 0.0693
vn 0.7037 0.7071 0.0693
vn 0.6767 -0.7071 0.2053
vn 0.6767 0.7071 0.2053
vn 0.6236 -0.7071 0.3333
vn 0.6236 0.7071 0.3333
vn 0.5466 -0.7071 0.4486
vn 0.5466 0.7071 0.4486
vn 0.4486 -0.7071 0.5466
vn 0.4486 0.7071 0.5466
vn 0.3333 -0.7071 0.6236
vn 0.3333 0.7071 0.6236
vn 0.2053 -0.7071 0.6767
vn 0.2053 0.7071 0.6767
vn 0.0693 -0.7071 0.7037
vn 0.0693 0.7071 0.7037
vn -0.0693 -0.7071 0.7037
vn -0.0693 0.7071 0.7037
vn -0.2053 -0.7071 0.6767
vn -0.2053 0.7071 0.6767
vn -0.3333 -0.7071 0.6236
vn -0.3333 0.7071 0.6236
vn -0.4486 -0.7071 0.5466
vn -0.4486 0.7071 0.5466
vn -0.5466 -0.7071 0.4486
vn -0.5466 0.7071 0.4486
vn -0.6236 -0.7071 0.3333
vn -0.6236 0.7071 0.3333
vn -0.6767 -0.7071 0.2053
vn -0.6767 0.7071 0.2053
vn -0.7037 -0.7071 0.0693
vn -0.7037 0.7071 0.0693
vn -0.7037 -0.7071 -0.0693
vn -0.7037 0.7071 -0.0693
vn -0.6767 -0.7071 -0.2053
vn -0.6767 0.7071 -0.2053
vn -0.6236 -0.7071 -0.3333
vn -0.6236 0.7071 -0.3333
vn -0.5466 -0.7071 -0.4486
vn -0.5466 0.7071 -0.4486
vn -0.4486 -0.7071 -0.5466
vn -0.4486 0.7071 -0.5466
vn -0.3333 -0.7071 -0.6236
vn -0.3333 0.7071 -0.6236
vn -0.2053 -0.7071 -0.6767
vn -0.2053 0.7071 -0.6767
vn -0.0693 -0.7071 -0.7037
vn -0.0693 0.7071 -0.7037
vt -0.375000 0.007500
vt -0.375000 0.992500
vt -0.500000 0.992500
vt -0.500000 0.007500
vt 0.597055 0.987929
vt 0.690380 0.959619
vt 0.519134 0.546194
vt 0.509755 0.549039
vt 0.776389 0.913646
vt 0.527779 0.541574
vt 0.851777 0.851777
vt 0.535355 0.535355
vt 0.913646 0.776389
vt 0.541574 0.527779
vt 0.959619 0.690380
vt 0.546194 0.519134
vt 0.987929 0.597055
vt 0.549039 0.509755
vt 0.997488 0.500000
vt 0.550000 0.500000
vt 0.987929 0.402945
vt 0.549039 0.490245
vt 0.959619 0.309620
vt 0.546194 0.480866
vt 0.913646 0.223611
vt 0.541574 0.472221
vt 0.851777 0.148223
vt 0.535355 0.464645
vt 0.776389 0.086354
vt 0.527779 0.458427
vt 0.690380 0.040381
vt 0.519134 0.453806
vt 0.597055 0.012071
vt 0.509755 0.450961
vt 0.500000 0.002512
vt 0.500000 0.450000
vt 0.402945 0.012071
vt 0.490245 0.450961
vt 0.309620 0.040381
vt 0.480866 0.453806
vt 0.223611 0.086354
vt 0.472221 0.458427
vt 0.148223 0.148223
vt 0.464645 0.464645
vt 0.086354 0.223611
vt 0.458427 0.472221
vt 0.040381 0.309620
vt 0.453806 0.480866
vt 0.012071 0.402945
vt 0.450961 0.490245
vt 0.002512 0.500000
vt 0.450000 0.500000
vt 0.012071 0.597055
vt 0.450961 0.509755
vt 0.040381 0.690380
vt 0.453806 0.519134
vt 0.086354 0.776389
vt 0.458427 0.527779
vt 0.148223 0.851777
vt 0.464645 0.535355
vt 0.223611 0.913646
vt 0.472221 0.541574
vt 0.309620 0.959619
vt 0.480866 0.546194
vt 2.375000 0.007500
vt 2.375000 0.992500
vt 2.250000 0.992500
vt 2.250000 0.007500
vt 0.402945 0.987929
vt 0.490245 0.549039
vt 0.500000 0.997488
vt 0.500000 0.550000
vt -0.625000 0.992500
vt -0.625000 0.007500
vt 1.250000 0.007500
vt 1.250000 0.992500
vt 1.125000 0.992500
vt 1.125000 0.007500
vt 0.125000 0.007500
vt 0.125000 0.992500
vt 0.000000 0.992500
vt 0.000000 0.007500
vt 2.125000 0.992500
vt 2.125000 0.007500
vt 1.000000 0.992500
vt 1.000000 0.007500
vt -0.125000 0.992500
vt -0.125000 0.007500
vt -0.750000 0.007500
vt -0.750000 0.992500
vt -0.875000 0.992500
vt -0.875000 0.007500
vt 2.000000 0.992500
vt 2.000000 0.007500
vt 0.875000 0.992500
vt 0.875000 0.007500
vt -0.250000 0.992500
vt -0.250000 0.007500
vt -1.000000 0.992500
vt -1.000000 0.007500
vt 1.875000 0.992500
vt 1.875000 0.007500
vt 0.750000 0.992500
vt 0.750000 0.007500
vt -1.125000 0.992500
vt -1.125000 0.007500
vt 1.750000 0.992500
vt 1.750000 0.007500
vt 0.625000 0.992500
vt 0.625000 0.007500
vt -1.250000 0.992500
vt -1.250000 0.007500
vt 1.625000 0.992500
vt 1.625000 0.007500
vt 0.500000 0.992500
vt 0.500000 0.007500
vt -1.375000 0.992500
vt -1.375000 0.007500
vt 1.500000 0.992500
vt 1.500000 0.007500
vt 0.375000 0.992500
vt 0.375000 0.007500
vt -1.500000 0.992500
vt -1.500000 0.007500
vt 1.375000 0.992500
vt 1.375000 0.007500
vt 0.250000 0.992500
vt 0.250000 0.007500
vt 2.500000 0.007500
vt 2.500000 0.992500
vt 0.500000 1.000000
vt 0.597545 0.990393
vt 0.691342 0.961940
vt 0.777785 0.915735
vt 0.853553 0.853553
vt 0.915735 0.777785
vt 0.961940 0.691342
vt 0.990393 0.597545
vt 1.000000 0.500000
vt 0.990393 0.402455
vt 0.961940 0.308658
vt 0.915735 0.222215
vt 0.853553 0.146447
vt 0.777785 0.084265
vt 0.691342 0.038060
vt 0.597545 0.009607
vt 0.500000 0.000000
vt 0.402455 0.009607
vt 0.308658 0.038060
vt 0.222215 0.084265
vt 0.146447 0.146447
vt 0.084265 0.222215
vt 0.038060 0.308658
vt 0.009607 0.402455
vt 0.000000 0.500000
vt 0.009607 0.597545
vt 0.038060 0.691342
vt 0.084265 0.777785
vt 0.146447 0.853553
vt 0.222215 0.915735
vt 0.308658 0.961940
vt 0.402455 0.990393
s 0
f 189/1/1 192/2/1 67/3/1 66/4/1
f 70/5/2 74/6/2 5/7/2 3/8/2
f 74/6/2 78/9/2 7/10/2 5/7/2
f 78/9/2 82/11/2 9/12/2 7/10/2
f 82/11/2 86/13/2 11/14/2 9/12/2
f 86/13/2 90/15/2 13/16/2 11/14/2
f 90/15/2 94/17/2 15/18/2 13/16/2
f 94/17/2 98/19/2 17/20/2 15/18/2
f 98/19/2 102/21/2 19/22/2 17/20/2
f 102/21/2 106/23/2 21/24/2 19/22/2
f 106/23/2 110/25/2 23/26/2 21/24/2
f 110/25/2 114/27/2 25/28/2 23/26/2
f 114/27/2 118/29/2 27/30/2 25/28/2
f 118/29/2 122/31/2 29/32/2 27/30/2
f 122/31/2 126/33/2 31/34/2 29/32/2
f 126/33/2 130/35/2 33/36/2 31/34/2
f 130/35/2 134/37/2 35/38/2 33/36/2
f 134/37/2 138/39/2 37/40/2 35/38/2
f 138/39/2 142/41/2 39/42/2 37/40/2
f 142/41/2 146/43/2 41/44/2 39/42/2
f 146/43/2 150/45/2 43/46/2 41/44/2
f 150/45/2 154/47/2 45/48/2 43/46/2
f 154/47/2 158/49/2 47/50/2 45/48/2
f 158/49/2 162/51/2 49/52/2 47/50/2
f 162/51/2 166/53/2 51/54/2 49/52/2
f 166/53/2 170/55/2 53/56/2 51/54/2
f 170/55/2 174/57/2 55/58/2 53/56/2
f 174/57/2 178/59/2 57/60/2 55/58/2
f 178/59/2 182/61/2 59/62/2 57/60/2
f 182/61/2 186/63/2 61/64/2 59/62/2
f 101/65/3 104/66/3 108/67/3 105/68/3
f 186/63/2 190/69/2 63/70/2 61/64/2
f 190/69/2 65/71/2 1/72/2 63/70/2
f 139/39/4 135/37/4 36/38/4 38/40/4
f 66/4/5 67/3/5 72/73/5 69/74/5
f 175/57/4 171/55/4 54/56/4 56/58/4
f 137/75/6 140/76/6 144/77/6 141/78/6
f 68/71/4 191/69/4 64/70/4 2/72/4
f 173/79/7 176/80/7 180/81/7 177/82/7
f 107/23/4 103/21/4 20/22/4 22/24/4
f 143/41/4 139/39/4 38/40/4 40/42/4
f 105/68/8 108/67/8 112/83/8 109/84/8
f 179/59/4 175/57/4 56/58/4 58/60/4
f 141/78/9 144/77/9 148/85/9 145/86/9
f 75/6/4 71/5/4 4/8/4 6/7/4
f 177/82/10 180/81/10 184/87/10 181/88/10
f 111/25/4 107/23/4 22/24/4 24/26/4
f 73/89/11 76/90/11 80/91/11 77/92/11
f 147/43/4 143/41/4 40/42/4 42/44/4
f 109/84/12 112/83/12 116/93/12 113/94/12
f 183/61/4 179/59/4 58/60/4 60/62/4
f 145/86/13 148/85/13 152/95/13 149/96/13
f 79/9/4 75/6/4 6/7/4 8/10/4
f 181/88/14 184/87/14 188/97/14 185/98/14
f 115/27/4 111/25/4 24/26/4 26/28/4
f 77/92/15 80/91/15 84/99/15 81/100/15
f 151/45/4 147/43/4 42/44/4 44/46/4
f 113/94/16 116/93/16 120/101/16 117/102/16
f 187/63/4 183/61/4 60/62/4 62/64/4
f 149/96/17 152/95/17 156/103/17 153/104/17
f 83/11/4 79/9/4 8/10/4 10/12/4
f 185/98/18 188/97/18 192/2/18 189/1/18
f 119/29/4 115/27/4 26/28/4 28/30/4
f 81/100/19 84/99/19 88/105/19 85/106/19
f 155/47/4 151/45/4 44/46/4 46/48/4
f 117/102/20 120/101/20 124/107/20 121/108/20
f 191/69/4 187/63/4 62/64/4 64/70/4
f 153/104/21 156/103/21 160/109/21 157/110/21
f 87/13/4 83/11/4 10/12/4 12/14/4
f 123/31/4 119/29/4 28/30/4 30/32/4
f 85/106/22 88/105/22 92/111/22 89/112/22
f 159/49/4 155/47/4 46/48/4 48/50/4
f 121/108/23 124/107/23 128/113/23 125/114/23
f 71/5/4 68/71/4 2/72/4 4/8/4
f 157/110/24 160/109/24 164/115/24 161/116/24
f 91/15/4 87/13/4 12/14/4 14/16/4
f 69/74/25 72/73/25 76/90/25 73/89/25
f 127/33/4 123/31/4 30/32/4 32/34/4
f 89/112/26 92/111/26 96/117/26 93/118/26
f 163/51/4 159/49/4 48/50/4 50/52/4
f 125/114/27 128/113/27 132/119/27 129/120/27
f 161/116/28 164/115/28 168/121/28 165/122/28
f 95/17/4 91/15/4 14/16/4 16/18/4
f 131/35/4 127/33/4 32/34/4 34/36/4
f 93/118/29 96/117/29 100/123/29 97/124/29
f 167/53/4 163/51/4 50/52/4 52/54/4
f 129/120/30 132/119/30 136/125/30 133/126/30
f 165/122/31 168/121/31 172/127/31 169/128/31
f 99/19/4 95/17/4 16/18/4 18/20/4
f 135/37/4 131/35/4 34/36/4 36/38/4
f 97/129/32 100/130/32 104/66/32 101/65/32
f 171/55/4 167/53/4 52/54/4 54/56/4
f 133/126/33 136/125/33 140/76/33 137/75/33
f 169/128/34 172/127/34 176/80/34 173/79/34
f 103/21/4 99/19/4 18/20/4 20/22/4
f 66/131/35 69/132/35 70/5/35 65/71/35
f 72/132/36 67/131/36 68/71/36 71/5/36
f 69/132/37 73/133/37 74/6/37 70/5/37
f 76/133/38 72/132/38 71/5/38 75/6/38
f 73/133/39 77/134/39 78/9/39 74/6/39
f 80/134/40 76/133/40 75/6/40 79/9/40
f 77/134/41 81/135/41 82/11/41 78/9/41
f 84/135/42 80/134/42 79/9/42 83/11/42
f 81/135/43 85/136/43 86/13/43 82/11/43
f 88/136/44 84/135/44 83/11/44 87/13/44
f 85/136/45 89/137/45 90/15/45 86/13/45
f 92/137/46 88/136/46 87/13/46 91/15/46
f 89/137/47 93/138/47 94/17/47 90/15/47
f 96/138/48 92/137/48 91/15/48 95/17/48
f 93/138/49 97/139/49 98/19/49 94/17/49
f 100/139/50 96/138/50 95/17/50 99/19/50
f 97/139/51 101/140/51 102/21/51 98/19/51
f 104/140/52 100/139/52 99/19/52 103/21/52
f 101/140/53 105/141/53 106/23/53 102/21/53
f 108/141/54 104/140/54 103/21/54 107/23/54
f 105/141/55 109/142/55 110/25/55 106/23/55
f 112/142/56 108/141/56 107/23/56 111/25/56
f 109/142/57 113/143/57 114/27/57 110/25/57
f 116/143/58 112/142/58 111/25/58 115/27/58
f 113/143/59 117/144/59 118/29/59 114/27/59
f 120/144/60 116/143/60 115/27/60 119/29/60
f 117/144/61 121/145/61 122/31/61 118/29/61
f 124/145/62 120/144/62 119/29/62 123/31/62
f 121/145/63 125/146/63 126/33/63 122/31/63
f 128/146/64 124/145/64 123/31/64 127/33/64
f 125/146/65 129/147/65 130/35/65 126/33/65
f 132/147/66 128/146/66 127/33/66 131/35/66
f 129/147/67 133/148/67 134/37/67 130/35/67
f 136/148/68 132/147/68 131/35/68 135/37/68
f 133/148/69 137/149/69 138/39/69 134/37/69
f 140/149/70 136/148/70 135/37/70 139/39/70
f 137/149/71 141/150/71 142/41/71 138/39/71
f 144/150/72 140/149/72 139/39/72 143/41/72
f 141/150/73 145/151/73 146/43/73 142/41/73
f 148/151/74 144/150/74 143/41/74 147/43/74
f 145/151/75 149/152/75 150/45/75 146/43/75
f 152/152/76 148/151/76 147/43/76 151/45/76
f 149/152/77 153/153/77 154/47/77 150/45/77
f 156/153/78 152/152/78 151/45/78 155/47/78
f 153/153/79 157/154/79 158/49/79 154/47/79
f 160/154/80 156/153/80 155/47/80 159/49/80
f 157/154/81 161/155/81 162/51/81 158/49/81
f 164/155/82 160/154/82 159/49/82 163/51/82
f 161/155/83 165/156/83 166/53/83 162/51/83
f 168/156/84 164/155/84 163/51/84 167/53/84
f 165/156/85 169/157/85 170/55/85 166/53/85
f 172/157/86 168/156/86 167/53/86 171/55/86
f 169/157/87 173/158/87 174/57/87 170/55/87
f 176/158/88 172/157/88 171/55/88 175/57/88
f 173/158/89 177/159/89 178/59/89 174/57/89
f 180/159/90 176/158/90 175/57/90 179/59/90
f 177/159/91 181/160/91 182/61/91 178/59/91
f 184/160/92 180/159/92 179/59/92 183/61/92
f 181/160/93 185/161/93 186/63/93 182/61/93
f 188/161/94 184/160/94 183/61/94 187/63/94
f 185/161/95 189/162/95 190/69/95 186/63/95
f 192/162/96 188/161/96 187/63/96 191/69/96
f 189/162/97 66/131/97 65/71/97 190/69/97
f 67/131/98 192/162/98 191/69/98 68/71/98
f 65/71/2 70/5/2 3/8/2 1/72/2
