# Blender 4.0.2
# www.blender.org
mtllib mr_angry_cube_1.mtl
g mrAngryCube_mrAngryCube
v -1.000000 -1.000000 1.000000
v -1.000000 1.000000 1.000000
v -1.000000 -1.000000 -1.000000
v -1.000000 1.000000 -1.000000
v 1.000000 -1.000000 1.000000
v 1.000000 1.000000 1.000000
v 1.000000 -1.000000 -1.000000
v 1.000000 1.000000 -1.000000
v -0.970000 1.000000 0.970000
v -0.970000 1.000000 -0.970000
v 0.970000 1.000000 0.970000
v 0.970000 1.000000 -0.970000
v -0.970000 0.900000 0.970000
v -0.970000 0.900000 -0.970000
v 0.970000 0.900000 0.970000
v 0.970000 0.900000 -0.970000
v -0.679000 0.900000 0.679000
v -0.679000 0.900000 -0.679000
v 0.679000 0.900000 0.679000
v 0.679000 0.900000 -0.679000
v -0.339500 0.900000 0.339500
v -0.339500 0.900000 -0.339500
v 0.339500 0.900000 0.339500
v 0.339500 0.900000 -0.339500
vn -1.0000 -0.0000 -0.0000
vn -0.0000 -0.0000 -1.0000
vn 1.0000 -0.0000 -0.0000
vn -0.0000 -0.0000 1.0000
vn -0.0000 -1.0000 -0.0000
vn -0.0000 1.0000 -0.0000
vt 0.000000 0.000000
vt 0.000000 1.000000
vt 1.000000 1.000000
vt 1.000000 0.000000
vt 0.015000 0.015000
vt 0.015000 0.985000
vt 0.985000 0.015000
vt 0.985000 0.985000
vt 0.666667 0.980000
vt 0.666667 0.656667
vt 0.683333 0.656667
vt 0.683333 0.980000
vt 0.700000 0.656667
vt 0.700000 0.980000
vt 0.716667 0.656667
vt 0.716667 0.980000
vt 0.733334 0.656667
vt 0.733334 0.980000
vt 0.850000 0.850000
vt 0.850000 0.150000
vt 0.150000 0.150000
vt 0.150000 0.850000
vt 0.675000 0.325000
vt 0.325000 0.325000
vt 0.325000 0.675000
vt 0.675000 0.675000
s 0
f 1/1/1 2/2/1 4/3/1 3/4/1
f 3/1/2 4/2/2 8/3/2 7/4/2
f 7/4/3 8/3/3 6/2/3 5/1/3
f 5/4/4 6/3/4 2/2/4 1/1/4
f 3/2/5 7/3/5 5/4/5 1/1/5
f 4/2/6 2/1/6 9/5/6 10/6/6
f 2/1/6 6/4/6 11/7/6 9/5/6
f 8/3/6 4/2/6 10/6/6 12/8/6
f 6/4/6 8/3/6 12/8/6 11/7/6
f 12/9/4 10/10/4 14/11/4 16/12/4
f 11/12/1 12/11/1 16/13/1 15/14/1
f 10/14/3 9/13/3 13/15/3 14/16/3
f 9/16/2 11/15/2 15/17/2 13/18/2
f 15/4/6 16/3/6 20/19/6 19/20/6
f 14/2/6 13/1/6 17/21/6 18/22/6
f 13/1/6 15/4/6 19/20/6 17/21/6
f 16/3/6 14/2/6 18/22/6 20/19/6
f 17/21/6 19/20/6 23/23/6 21/24/6
f 20/19/6 18/22/6 22/25/6 24/26/6
f 19/20/6 20/19/6 24/26/6 23/23/6
f 18/22/6 17/21/6 21/24/6 22/25/6
f 22/25/6 21/24/6 23/23/6 24/26/6
g mrAngryCubeFace_mrAngryCubeFace
v -1.000000 1.010000 1.000000
v -1.000000 1.010000 -1.000000
v 1.000000 1.010000 1.000000
v 1.000000 1.010000 -1.000000
vn -0.0000 1.0000 -0.0000
vt 1.000000 1.000000
vt 0.000000 1.000000
vt 0.000000 0.000000
vt 1.000000 0.000000
s 0
f 28/27/7 26/28/7 25/29/7 27/30/7
