# Blender 4.4.0
# www.blender.org
o mrAngryCube
v -1.000000 -1.000000 1.000000
v -1.000000 1.000000 1.000000
v -1.000000 -1.000000 -1.000000
v -1.000000 1.000000 -1.000000
v 1.000000 -1.000000 1.000000
v 1.000000 1.000000 1.000000
v 1.000000 -1.000000 -1.000000
v 1.000000 1.000000 -1.000000
v -0.970000 1.000000 0.970000
v -0.970000 1.000000 -0.970000
v 0.970000 1.000000 0.970000
v 0.970000 1.000000 -0.970000
v -0.970000 0.900000 0.970000
v -0.970000 0.900000 -0.970000
v 0.970000 0.900000 0.970000
v 0.970000 0.900000 -0.970000
v -0.679000 0.900000 0.679000
v -0.679000 0.900000 -0.679000
v 0.679000 0.900000 0.679000
v 0.679000 0.900000 -0.679000
v -0.339500 0.900000 0.339500
v -0.339500 0.900000 -0.339500
v 0.339500 0.900000 0.339500
v 0.339500 0.900000 -0.339500
vn -1.0000 -0.0000 -0.0000
vn -0.0000 -0.0000 -1.0000
vn 1.0000 -0.0000 -0.0000
vn -0.0000 -0.0000 1.0000
vn -0.0000 -1.0000 -0.0000
vn -0.0000 1.0000 -0.0000
vt 0.333333 0.333333
vt 0.000000 0.333333
vt 0.000000 0.000000
vt 0.333333 0.000000
vt 0.333333 0.666667
vt 0.000000 0.666667
vt 0.000000 0.333333
vt 0.333333 0.333333
vt 0.666667 0.333333
vt 0.333333 0.333333
vt 0.333333 0.000000
vt 0.666667 0.000000
vt 0.666667 0.666667
vt 0.333333 0.666667
vt 0.333333 0.333333
vt 0.666667 0.333333
vt 0.333333 0.666667
vt 0.333333 1.000000
vt 0.000000 1.000000
vt 0.000000 0.666667
vt 1.000000 0.333333
vt 0.666667 0.333333
vt 0.671667 0.328333
vt 0.995000 0.328333
vt 0.666667 0.000000
vt 0.671667 0.005000
vt 1.000000 0.000000
vt 0.995000 0.005000
vt 0.666667 0.980000
vt 0.666667 0.656667
vt 0.683333 0.656667
vt 0.683333 0.980000
vt 0.683333 0.980000
vt 0.683333 0.656667
vt 0.700000 0.656667
vt 0.700000 0.980000
vt 0.700000 0.980000
vt 0.700000 0.656667
vt 0.716667 0.656667
vt 0.716667 0.980000
vt 0.716667 0.980000
vt 0.716667 0.656667
vt 0.733334 0.656667
vt 0.733334 0.980000
vt 0.666667 0.333333
vt 0.990000 0.333333
vt 0.941500 0.381833
vt 0.715167 0.381833
vt 0.990000 0.656667
vt 0.666667 0.656667
vt 0.715167 0.608167
vt 0.941500 0.608167
vt 0.771750 0.438417
vt 0.771750 0.551583
vt 0.884917 0.551583
vt 0.884917 0.438417
s 0
f 1/1/1 2/2/1 4/3/1 3/4/1
f 3/5/2 4/6/2 8/7/2 7/8/2
f 7/9/3 8/10/3 6/11/3 5/12/3
f 5/13/4 6/14/4 2/15/4 1/16/4
f 3/17/5 7/18/5 5/19/5 1/20/5
f 4/21/6 2/22/6 9/23/6 10/24/6
f 2/22/6 6/25/6 11/26/6 9/23/6
f 8/27/6 4/21/6 10/24/6 12/28/6
f 6/25/6 8/27/6 12/28/6 11/26/6
f 12/29/4 10/30/4 14/31/4 16/32/4
f 11/33/1 12/34/1 16/35/1 15/36/1
f 10/37/3 9/38/3 13/39/3 14/40/3
f 9/41/2 11/42/2 15/43/2 13/44/2
f 15/45/6 16/46/6 20/47/6 19/48/6
f 14/49/6 13/50/6 17/51/6 18/52/6
f 13/50/6 15/45/6 19/48/6 17/51/6
f 16/46/6 14/49/6 18/52/6 20/47/6
f 17/51/6 19/48/6 23/53/6 21/54/6
f 20/47/6 18/52/6 22/55/6 24/56/6
f 19/48/6 20/47/6 24/56/6 23/53/6
f 18/52/6 17/51/6 21/54/6 22/55/6
f 22/55/6 21/54/6 23/53/6 24/56/6
o mrAngryCubeFace
v -1.000000 1.010000 1.000000
v -1.000000 1.010000 -1.000000
v 1.000000 1.010000 1.000000
v 1.000000 1.010000 -1.000000
vn -0.0000 1.0000 -0.0000
vt 1.000000 1.000000
vt 0.000000 1.000000
vt 0.000000 0.000000
vt 1.000000 0.000000
s 0
f 28/57/7 26/58/7 25/59/7 27/60/7
