# Blender 4.0.2
# www.blender.org
mtllib mr_icosahedron.mtl
o MrIcosahedron
v 1.000000 2.000000 0.000000
v 2.000000 0.000000 1.000000
v 2.000000 0.000000 -1.000000
v -0.000000 1.000000 2.000000
v -1.000000 2.000000 0.000000
v 0.000000 1.000000 -2.000000
v -2.000000 0.000000 -1.000000
v -0.000000 -1.000000 2.000000
v -1.000000 -2.000000 0.000000
v 1.000000 -2.000000 0.000000
v -2.000000 0.000000 1.000000
v 0.000000 -1.000000 -2.000000
vn 0.5262 0.8504 -0.0000
vn 0.8634 -0.0000 0.5044
vn 0.8634 -0.0000 -0.5044
vn 0.5262 -0.8504 -0.0000
vn -0.0000 0.5207 0.8538
vn -0.0000 0.5207 -0.8538
vn -0.0000 -0.5207 0.8538
vn -0.0000 -0.5207 -0.8538
vn -0.5262 0.8504 -0.0000
vn -0.8634 -0.0000 -0.5044
vn -0.8634 -0.0000 0.5044
vn -0.5262 -0.8504 -0.0000
vt 0.342835 0.962064
vt 0.493102 0.771109
vt 0.577215 0.962064
vt 0.482169 0.268533
vt 0.572579 0.464479
vt 0.339069 0.464479
vt 0.251177 0.771109
vt 0.462273 1.164755
vt 1.000000 -0.000000
vt 1.000000 0.243903
vt 0.824535 0.169413
vt 0.466120 0.658361
vt 0.866104 0.814333
vt 0.840773 0.960529
vt 0.690639 0.888823
vt 0.239218 0.268533
vt 0.229848 1.153018
vt 0.138189 0.962064
vt 0.016873 1.153018
vt 0.658070 0.617779
vt 0.018752 0.759373
vt -0.096190 0.962064
vt 0.824535 0.413317
vt 0.234019 0.660424
vt -0.008933 0.660424
vt 0.134167 0.464479
vt -0.099343 0.464479
vt 0.007116 0.270597
s 1
usemtl mr_icosahedron_material
f 1/1/1 2/2/2 3/3/3
f 3/4/3 2/5/2 10/6/4
f 2/2/2 1/1/1 4/7/5
f 1/1/1 3/3/3 6/8/6
f 2/9/2 4/10/5 8/11/7
f 2/5/2 8/12/7 10/6/4
f 6/13/6 3/14/3 12/15/8
f 12/16/8 3/4/3 10/6/4
f 1/1/1 6/17/6 5/18/9
f 5/18/9 6/17/6 7/19/10
f 7/20/10 6/13/6 12/15/8
f 4/7/5 1/1/1 5/18/9
f 4/21/5 5/18/9 11/22/11
f 11/22/11 5/18/9 7/19/10
f 4/10/5 11/23/11 8/11/7
f 8/24/7 11/25/11 9/26/12
f 7/27/10 12/28/8 9/26/12
f 9/26/12 12/16/8 10/6/4
f 11/25/11 7/27/10 9/26/12
f 10/6/4 8/24/7 9/26/12
